<?xml version="1.0" encoding="utf-8"?>
<!-- Generator: Adobe Illustrator 24.3.0, SVG Export Plug-In . SVG Version: 6.00 Build 0)  -->
<svg version="1.1" id="Layer_1" xmlns="http://www.w3.org/2000/svg" xmlns:xlink="http://www.w3.org/1999/xlink" x="0px" y="0px"
	 viewBox="0 0 400 400" enable-background="new 0 0 400 400" xml:space="preserve">
<g>
	<g>
		<g>
			<path fill="#9AE8CE" d="M188.619,167.127c0-0.874,0.136-1.71,0.337-2.523h-80.741v13.11h90.992
				C193.361,177.714,188.619,172.976,188.619,167.127z"/>
		</g>
		<g>
			<path fill="#9AE8CE" d="M209.46,164.604c0.198,0.813,0.334,1.648,0.334,2.523c0,5.849-4.741,10.587-10.587,10.587h90.992v-13.11
				H209.46z"/>
		</g>
		<g>
			<path fill="#FFDA88" d="M199.207,156.539c4.975,0,9.116,3.442,10.254,8.065h49.514c-2.703-31-28.687-55.33-60.388-55.33
				c-31.703,0-57.685,24.33-60.388,55.33h50.757C190.094,159.981,194.235,156.539,199.207,156.539z"/>
		</g>
		<g>
			<path fill="#FFE2A9" d="M205.1,109.648c-2.142-0.229-4.31-0.374-6.514-0.374c-31.703,0-57.685,24.33-60.388,55.33h13.031
				C153.746,135.76,176.422,112.717,205.1,109.648z"/>
		</g>
		<g>
			<rect x="97.87" y="301.361" fill="#9AE8CE" width="202.674" height="17.648"/>
		</g>
		<g>
			<rect x="108.215" y="196.999" fill="#9AE8CE" width="181.984" height="13.11"/>
		</g>
		<g>
			<rect x="126.409" y="210.109" fill="#A880B2" width="145.595" height="91.252"/>
		</g>
		<g>
			<path fill="#A880B2" d="M299.841,187.356c0,5.326-4.316,9.642-9.642,9.642H108.215c-5.323,0-9.642-4.316-9.642-9.642l0,0
				c0-5.326,4.319-9.642,9.642-9.642h181.984C295.525,177.714,299.841,182.03,299.841,187.356L299.841,187.356z"/>
		</g>
		<g>
			<path fill="#B999C1" d="M109.783,187.356c0-5.326,4.316-9.642,9.642-9.642h-11.211c-5.323,0-9.642,4.316-9.642,9.642
				c0,5.326,4.319,9.642,9.642,9.642h11.211C114.099,196.999,109.783,192.683,109.783,187.356z"/>
		</g>
		<g>
			
				<ellipse transform="matrix(0.2298 -0.9732 0.9732 0.2298 -9.2178 322.6064)" fill="#A880B2" cx="199.207" cy="167.127" rx="10.587" ry="10.587"/>
		</g>
		<g>
			<path fill="#B999C1" d="M194.61,167.127c0-4.797,3.214-8.803,7.592-10.103c-0.954-0.284-1.947-0.485-2.996-0.485
				c-5.846,0-10.587,4.738-10.587,10.587c0,5.849,4.741,10.587,10.587,10.587c1.049,0,2.042-0.198,2.996-0.481
				C197.824,175.936,194.61,171.93,194.61,167.127z"/>
		</g>
		<g>
			<path fill="#9AE8CE" d="M199.207,90.004c-0.207-0.001-0.413-0.015-0.62-0.015c-42.752,0-77.79,32.81-81.435,74.614h21.048
				c2.703-31,28.684-55.328,60.388-55.328c0.21,0,0.41,0.028,0.62,0.03V90.004z"/>
		</g>
		<g>
			<path fill="#AEF4DB" d="M199.207,90.456v-0.45c-0.207-0.002-0.413-0.015-0.62-0.015c-42.752,0-77.79,32.81-81.435,74.613h9.258
				C129.806,125.654,160.458,94.527,199.207,90.456z"/>
		</g>
		<g>
			
				<rect x="250.661" y="92.887" transform="matrix(0.7071 -0.7071 0.7071 0.7071 0.1678 216.0507)" fill="#FFDA88" width="20.417" height="29.872"/>
		</g>
		<g>
			
				<rect x="241.944" y="96.444" transform="matrix(0.7071 -0.7071 0.7071 0.7071 3.8169 207.3212)" fill="#FFE2A9" width="20.417" height="5.218"/>
		</g>
		<g>
			<path fill="#9AE8CE" d="M275.576,93.118c-4.135-4.134-10.839-4.136-14.974,0l14.974,14.973
				C279.712,103.955,279.709,97.252,275.576,93.118z"/>
		</g>
		<g>
			<path fill="#AEF4DB" d="M265.895,93.1c1.386-1.385,3.069-2.266,4.839-2.722c-3.51-0.905-7.382-0.027-10.133,2.722l14.974,14.973
				c0.934-0.935,1.628-2.013,2.142-3.152L265.895,93.1z"/>
		</g>
		<g>
			<path fill="#FFDA88" d="M246.431,107.823l-12.564,12.775c4.514,3.571,10.374,8.737,14.316,14.352l12.688-12.689L246.431,107.823z
				"/>
		</g>
		<g>
			<g>
				<path fill="#FFE2A9" d="M248.889,110.281l-2.458-2.458l-12.564,12.775c1.087,0.78,2.077,1.461,3.108,2.308L248.889,110.281z"/>
			</g>
		</g>
		<g>
			<path fill="#FFDA88" d="M300.881,132.277h-4.216v-4.213c0-2.573-2.085-4.661-4.658-4.661c-2.573,0-4.661,2.089-4.661,4.661v4.213
				h-4.216c-2.573,0-4.658,2.089-4.658,4.661c0,2.573,2.085,4.661,4.658,4.661h4.216v4.213c0,2.576,2.088,4.661,4.661,4.661
				c2.573,0,4.658-2.085,4.658-4.661V141.6h4.216c2.573,0,4.661-2.088,4.661-4.661C305.542,134.366,303.454,132.277,300.881,132.277
				z"/>
		</g>
		<g>
			<path fill="#FFDA88" d="M99.997,85.328h-4.216v-4.213c0-2.573-2.085-4.661-4.659-4.661c-2.573,0-4.661,2.088-4.661,4.661v4.213
				h-4.216c-2.573,0-4.659,2.088-4.659,4.661c0,2.573,2.085,4.662,4.659,4.662h4.216v4.213c0,2.576,2.089,4.662,4.661,4.662
				c2.573,0,4.659-2.085,4.659-4.662v-4.213h4.216c2.573,0,4.662-2.089,4.662-4.662C104.658,87.417,102.57,85.328,99.997,85.328z"/>
		</g>
		<g>
			<path fill="#FFDA88" d="M317.875,107.823c0,3.905-3.164,7.072-7.069,7.072c-3.905,0-7.072-3.167-7.072-7.072
				c0-3.905,3.167-7.072,7.072-7.072C314.712,100.751,317.875,103.918,317.875,107.823z"/>
		</g>
		<g>
			<path fill="#FFDA88" d="M133.481,90.043c0,3.905-3.164,7.072-7.069,7.072c-3.905,0-7.072-3.167-7.072-7.072
				c0-3.905,3.167-7.072,7.072-7.072C130.317,82.971,133.481,86.138,133.481,90.043z"/>
		</g>
		<g>
			<path fill="#FFDA88" d="M105.645,122.13c0,3.905-3.164,7.072-7.069,7.072c-3.905,0-7.072-3.167-7.072-7.072
				c0-3.905,3.167-7.072,7.072-7.072C102.481,115.058,105.645,118.225,105.645,122.13z"/>
		</g>
		<g>
			<path fill="#FFDA88" d="M229.2,301.361v-42.61c0-16.561-13.43-29.99-29.993-29.99c-16.563,0-29.99,13.429-29.99,29.99v42.61
				H229.2z"/>
		</g>
		<g>
			<path fill="#FFE2A9" d="M205.198,229.364c-1.935-0.393-3.938-0.603-5.991-0.603c-16.563,0-29.99,13.429-29.99,29.99v42.61h11.979
				v-42.61C181.196,244.24,191.506,232.137,205.198,229.364z"/>
		</g>
		<g>
			<path fill="#FFE2A9" d="M124.988,90.043c0-2.899,1.749-5.385,4.248-6.475c-0.866-0.38-1.82-0.595-2.824-0.595
				c-3.905,0-7.072,3.165-7.072,7.071c0,3.905,3.167,7.071,7.072,7.071c1.004,0,1.959-0.216,2.824-0.595
				C126.737,95.428,124.988,92.942,124.988,90.043z"/>
		</g>
		<g>
			<path fill="#FFE2A9" d="M97.152,122.132c0-2.9,1.749-5.385,4.248-6.475c-0.865-0.38-1.82-0.595-2.824-0.595
				c-3.905,0-7.072,3.165-7.072,7.071c0,3.904,3.167,7.071,7.072,7.071c1.005,0,1.959-0.216,2.824-0.597
				C98.901,127.519,97.152,125.031,97.152,122.132z"/>
		</g>
		<g>
			<path fill="#FFE2A9" d="M309.382,107.823c0-2.899,1.752-5.385,4.248-6.475c-0.865-0.38-1.817-0.595-2.824-0.595
				c-3.905,0-7.072,3.165-7.072,7.071c0,3.905,3.167,7.071,7.072,7.071c1.007,0,1.959-0.216,2.824-0.595
				C311.134,113.209,309.382,110.723,309.382,107.823z"/>
		</g>
		<g>
			<rect x="97.87" y="301.361" fill="#AEF4DB" width="15.199" height="17.648"/>
		</g>
		<g>
			<rect x="108.215" y="196.999" fill="#AEF4DB" width="15.199" height="13.11"/>
		</g>
		<g>
			<rect x="108.215" y="164.604" fill="#AEF4DB" width="15.199" height="13.11"/>
		</g>
		<g>
			<rect x="126.409" y="210.109" fill="#B999C1" width="11.79" height="91.252"/>
		</g>
	</g>
	<g>
		<g>
			<path fill="#161616" d="M199.207,182.252h-90.992c-2.507,0-4.537-2.032-4.537-4.538v-13.11c0-2.505,2.031-4.538,4.537-4.538
				h80.741c1.396,0,2.713,0.641,3.573,1.74c0.86,1.099,1.167,2.532,0.832,3.888c-0.139,0.561-0.204,1.019-0.204,1.433
				c0,3.335,2.713,6.05,6.05,6.05c2.507,0,4.537,2.032,4.537,4.537C203.744,180.219,201.713,182.252,199.207,182.252z
				 M112.752,173.177h72.592c-0.554-1.264-0.939-2.62-1.13-4.035h-71.462V173.177z"/>
		</g>
		<g>
			<path fill="#161616" d="M290.199,182.252h-90.992c-2.507,0-4.537-2.032-4.537-4.538c0-2.505,2.031-4.537,4.537-4.537
				c3.337,0,6.05-2.715,6.05-6.05c0-0.414-0.065-0.874-0.205-1.447c-0.329-1.353-0.019-2.783,0.84-3.879
				c0.861-1.096,2.176-1.734,3.569-1.734h80.738c2.507,0,4.538,2.032,4.538,4.538v13.11
				C294.736,180.219,292.705,182.252,290.199,182.252z M213.069,173.177h72.592v-4.035h-71.462
				C214.008,170.557,213.623,171.912,213.069,173.177z"/>
		</g>
		<g>
			<path fill="#161616" d="M258.974,169.142H209.46c-2.089,0-3.907-1.427-4.406-3.453c-0.668-2.715-3.072-4.611-5.848-4.611
				c-2.774,0-5.177,1.896-5.845,4.611c-0.499,2.027-2.318,3.453-4.406,3.453h-50.757c-1.272,0-2.486-0.535-3.345-1.471
				c-0.858-0.939-1.285-2.192-1.174-3.459c2.956-33.907,30.86-59.475,64.907-59.475c34.047,0,61.952,25.568,64.907,59.475
				c0.111,1.267-0.316,2.52-1.174,3.459C261.46,168.607,260.246,169.142,258.974,169.142z M212.559,160.067h41.239
				c-4.71-26.306-28.061-46.255-55.212-46.255c-27.151,0-50.502,19.949-55.212,46.255h42.483c2.566-4.883,7.644-8.065,13.35-8.065
				C204.914,152.002,209.994,155.183,212.559,160.067z"/>
		</g>
		<g>
			<path fill="#161616" d="M300.544,323.546H97.87c-2.507,0-4.537-2.033-4.537-4.538v-17.648c0-2.505,2.031-4.537,4.537-4.537
				h202.674c2.507,0,4.538,2.032,4.538,4.537v17.648C305.081,321.513,303.05,323.546,300.544,323.546z M102.407,314.471h193.599
				v-8.573H102.407V314.471z"/>
		</g>
		<g>
			<path fill="#161616" d="M290.199,214.646H108.215c-2.507,0-4.537-2.032-4.537-4.537v-13.11c0-2.505,2.031-4.537,4.537-4.537
				h181.984c2.507,0,4.538,2.032,4.538,4.537v13.11C294.736,212.614,292.705,214.646,290.199,214.646z M112.752,205.571h172.909
				v-4.035H112.752V205.571z"/>
		</g>
		<g>
			<path fill="#161616" d="M272.004,305.898H126.409c-2.507,0-4.537-2.032-4.537-4.538v-91.252c0-2.505,2.031-4.538,4.537-4.538
				h145.595c2.507,0,4.538,2.032,4.538,4.538v54.952c0,2.505-2.031,4.538-4.538,4.538c-2.507,0-4.538-2.033-4.538-4.538v-50.415
				h-136.52v82.177h136.52v-9.495c0-2.505,2.031-4.537,4.538-4.537c2.507,0,4.538,2.032,4.538,4.537v14.032
				C276.542,303.866,274.511,305.898,272.004,305.898z"/>
		</g>
		<g>
			<path fill="#161616" d="M290.199,201.536H108.215c-7.818,0-14.18-6.36-14.18-14.18c0-7.819,6.362-14.18,14.18-14.18h181.984
				c7.818,0,14.18,6.36,14.18,14.18C304.378,195.176,298.017,201.536,290.199,201.536z M108.215,182.252
				c-2.815,0-5.105,2.289-5.105,5.105c0,2.815,2.289,5.105,5.105,5.105h181.984c2.815,0,5.105-2.29,5.105-5.105
				c0-2.815-2.289-5.105-5.105-5.105H108.215z"/>
		</g>
		<g>
			<path fill="#161616" d="M199.207,182.252c-8.339,0-15.125-6.786-15.125-15.125s6.786-15.125,15.125-15.125
				c8.339,0,15.125,6.786,15.125,15.125S207.546,182.252,199.207,182.252z M199.207,161.077c-3.337,0-6.05,2.715-6.05,6.05
				c0,3.335,2.713,6.05,6.05,6.05c3.337,0,6.05-2.715,6.05-6.05C205.257,163.792,202.543,161.077,199.207,161.077z"/>
		</g>
		<g>
			<path fill="#161616" d="M138.199,169.142h-21.048c-1.272,0-2.486-0.535-3.345-1.471c-0.86-0.939-1.285-2.195-1.174-3.462
				c1.38-15.807,7.105-30.923,16.558-43.71c1.489-2.018,4.332-2.442,6.345-0.951c2.015,1.489,2.441,4.331,0.951,6.344
				c-7.468,10.106-12.336,21.834-14.223,34.176h11.907c4.58-30.542,29.631-53.42,60.5-55.215V94.633
				c-15.988,0.805-30.904,6.362-43.499,16.187c-1.976,1.544-4.826,1.19-6.369-0.786c-1.542-1.976-1.189-4.829,0.786-6.369
				c15.274-11.915,33.601-18.213,52.999-18.213l0.483,0.01c2.445,0.083,4.675,2.096,4.675,4.542v19.3c0,1.208-0.483,2.368-1.34,3.22
				c-0.851,0.843-2,1.318-3.198,1.318c-0.103-0.006-0.513-0.018-0.62-0.027c-0.002,0-0.004,0-0.006,0
				c-28.823,0-53.358,22.482-55.862,51.181C142.515,167.342,140.552,169.142,138.199,169.142z"/>
		</g>
		<g>
			<path fill="#161616" d="M264.212,130.139c-1.161,0-2.322-0.443-3.208-1.329l-21.122-21.12c-1.772-1.771-1.772-4.644,0-6.416
				l14.437-14.438c1.702-1.701,4.715-1.701,6.416,0l21.125,21.123c0.851,0.851,1.329,2.004,1.329,3.208
				c0,1.204-0.479,2.357-1.329,3.21l-14.44,14.434C266.533,129.696,265.373,130.139,264.212,130.139z M249.506,104.481
				l14.706,14.704l8.022-8.019l-14.707-14.707L249.506,104.481z"/>
		</g>
		<g>
			<path fill="#161616" d="M275.576,112.628c-1.161,0-2.322-0.443-3.208-1.329l-14.974-14.973c-0.851-0.851-1.329-2.004-1.329-3.208
				c0-1.204,0.479-2.357,1.329-3.208c5.898-5.895,15.493-5.896,21.391-0.001c0,0.001,0,0.001,0.001,0.001
				c5.895,5.898,5.895,15.493-0.001,21.389C277.898,112.185,276.737,112.628,275.576,112.628z M268.47,94.57l5.654,5.653
				c-0.089-1.42-0.675-2.814-1.758-3.896C271.284,95.245,269.889,94.659,268.47,94.57z"/>
		</g>
		<g>
			<path fill="#161616" d="M248.183,139.488c-0.13,0-0.261-0.006-0.393-0.018c-1.335-0.115-2.551-0.815-3.322-1.914
				c-3.654-5.208-8.127-9.728-13.292-13.432c-1.083-0.776-1.77-1.99-1.879-3.316c-0.108-1.328,0.372-2.636,1.315-3.579
				l12.611-12.614c1.702-1.702,4.715-1.702,6.416,0l14.44,14.438c1.772,1.771,1.772,4.644,0,6.418l-12.688,12.688
				C250.537,139.013,249.381,139.488,248.183,139.488z M240.654,120.019c2.891,2.45,5.558,5.145,7.982,8.06l5.818-5.818l-8.023-8.02
				L240.654,120.019z"/>
		</g>
		<g>
			<path fill="#161616" d="M300.881,132.277h-4.216v-4.213c0-2.573-2.085-4.661-4.658-4.661c-2.573,0-4.661,2.089-4.661,4.661v4.213
				h-4.216c-2.573,0-4.658,2.089-4.658,4.661c0,2.573,2.085,4.661,4.658,4.661h4.216v4.213c0,2.576,2.088,4.661,4.661,4.661
				c2.573,0,4.658-2.085,4.658-4.661V141.6h4.216c2.573,0,4.661-2.088,4.661-4.661C305.542,134.366,303.454,132.277,300.881,132.277
				z"/>
		</g>
		<g>
			<path fill="#161616" d="M99.997,85.328h-4.216v-4.213c0-2.573-2.085-4.661-4.659-4.661c-2.573,0-4.661,2.088-4.661,4.661v4.213
				h-4.216c-2.573,0-4.659,2.088-4.659,4.661c0,2.573,2.085,4.662,4.659,4.662h4.216v4.213c0,2.576,2.089,4.662,4.661,4.662
				c2.573,0,4.659-2.085,4.659-4.662v-4.213h4.216c2.573,0,4.662-2.089,4.662-4.662C104.658,87.417,102.57,85.328,99.997,85.328z"/>
		</g>
		<g>
			<path fill="#161616" d="M310.806,119.433c-6.402,0-11.61-5.208-11.61-11.61c0-6.401,5.208-11.609,11.61-11.609
				c6.4,0,11.607,5.208,11.607,11.609C322.413,114.225,317.206,119.433,310.806,119.433z M310.806,105.289
				c-1.397,0-2.535,1.137-2.535,2.535s1.137,2.535,2.535,2.535c1.396,0,2.532-1.137,2.532-2.535S312.202,105.289,310.806,105.289z"
				/>
		</g>
		<g>
			<path fill="#161616" d="M126.412,101.652c-6.402,0-11.61-5.208-11.61-11.61c0-6.402,5.208-11.61,11.61-11.61
				c6.4,0,11.607,5.208,11.607,11.61C138.019,96.444,132.812,101.652,126.412,101.652z M126.412,87.508
				c-1.397,0-2.535,1.137-2.535,2.535c0,1.397,1.137,2.535,2.535,2.535c1.396,0,2.532-1.137,2.532-2.535
				C128.944,88.646,127.808,87.508,126.412,87.508z"/>
		</g>
		<g>
			<path fill="#161616" d="M98.576,133.74c-6.402,0-11.61-5.208-11.61-11.61s5.208-11.61,11.61-11.61
				c6.4,0,11.607,5.208,11.607,11.61S104.976,133.74,98.576,133.74z M98.576,119.596c-1.397,0-2.535,1.137-2.535,2.535
				s1.137,2.535,2.535,2.535c1.396,0,2.532-1.137,2.532-2.535S99.972,119.596,98.576,119.596z"/>
		</g>
		<g>
			<path fill="#161616" d="M229.2,305.898h-59.983c-2.507,0-4.537-2.032-4.537-4.538v-42.61c0-19.039,15.488-34.527,34.527-34.527
				c19.041,0,34.53,15.488,34.53,34.527v42.61C233.737,303.866,231.706,305.898,229.2,305.898z M173.754,296.823h50.908v-38.072
				c0-14.035-11.419-25.452-25.455-25.452c-14.035,0-25.452,11.418-25.452,25.452V296.823z"/>
		</g>
	</g>
</g>
</svg>
