<svg width="1280" height="293" viewBox="0 0 1280 293" fill="none" xmlns="http://www.w3.org/2000/svg">
<rect width="1280" height="293" fill="black"/>
<rect x="761" y="176" width="1" height="1" fill="white" fill-opacity="0.4"/>
<rect x="463" y="124" width="2" height="2" fill="white" fill-opacity="0.4"/>
<rect x="547" y="282" width="1" height="1" fill="white" fill-opacity="0.6"/>
<rect x="1200" y="205" width="2" height="2" fill="white" fill-opacity="0.5"/>
<rect x="229" y="44" width="1" height="1" fill="white" fill-opacity="0.4"/>
<rect x="157" y="165" width="1" height="1" fill="white" fill-opacity="0.5"/>
<rect x="1073" y="18" width="2" height="2" fill="white" fill-opacity="0.6"/>
<rect x="190" y="277" width="2" height="2" fill="white" fill-opacity="0.4"/>
<rect x="771" y="94" width="1" height="1" fill="white" fill-opacity="0.4"/>
<rect x="121" y="241" width="1" height="1" fill="white" fill-opacity="0.3"/>
<rect x="1177" y="270" width="1" height="1" fill="white" fill-opacity="0.6"/>
<rect x="1023" y="10" width="1" height="1" fill="white" fill-opacity="0.3"/>
<rect x="94" y="241" width="2" height="2" fill="white" fill-opacity="0.5"/>
<rect x="678" y="285" width="1" height="1" fill="white" fill-opacity="0.4"/>
<rect x="429" y="280" width="1" height="1" fill="white" fill-opacity="0.6"/>
<rect x="273" y="17" width="2" height="2" fill="white" fill-opacity="0.4"/>
<rect x="1112" y="13" width="2" height="2" fill="white" fill-opacity="0.6"/>
<rect x="1015" y="32" width="1" height="1" fill="white" fill-opacity="0.4"/>
<rect x="815" y="27" width="1" height="1" fill="white" fill-opacity="0.4"/>
<rect x="684" y="264" width="2" height="2" fill="white" fill-opacity="0.5"/>
<rect x="427" y="208" width="1" height="1" fill="white" fill-opacity="0.5"/>
<rect x="1268" y="194" width="1" height="1" fill="white" fill-opacity="0.5"/>
<rect x="108" y="75" width="2" height="2" fill="white" fill-opacity="0.4"/>
<rect x="449" y="9" width="1" height="1" fill="white" fill-opacity="0.4"/>
<rect x="28" y="141" width="1" height="1" fill="white" fill-opacity="0.5"/>
<rect x="1230" y="129" width="1" height="1" fill="white" fill-opacity="0.4"/>
<rect x="451" y="230" width="2" height="2" fill="white" fill-opacity="0.5"/>
<rect x="358" y="164" width="2" height="2" fill="white" fill-opacity="0.5"/>
<rect x="979" y="160" width="1" height="1" fill="white" fill-opacity="0.5"/>
<rect x="439" y="133" width="1" height="1" fill="white" fill-opacity="0.5"/>
<rect x="309" y="161" width="1" height="1" fill="white" fill-opacity="0.3"/>
<rect x="492" y="84" width="1" height="1" fill="white" fill-opacity="0.4"/>
<rect x="644" y="71" width="1" height="1" fill="white" fill-opacity="0.4"/>
<rect x="1057" y="192" width="1" height="1" fill="white" fill-opacity="0.5"/>
<rect x="1131" y="271" width="2" height="2" fill="white" fill-opacity="0.4"/>
<rect x="1024" y="13" width="1" height="1" fill="white" fill-opacity="0.4"/>
<rect x="1097" y="76" width="1" height="1" fill="white" fill-opacity="0.4"/>
<rect x="1076" y="171" width="1" height="1" fill="white" fill-opacity="0.3"/>
<rect x="976" y="249" width="1" height="1" fill="white" fill-opacity="0.5"/>
<rect x="807" y="179" width="2" height="2" fill="white" fill-opacity="0.4"/>
<rect x="328" y="189" width="2" height="2" fill="white" fill-opacity="0.6"/>
<rect x="524" y="209" width="1" height="1" fill="white" fill-opacity="0.4"/>
<rect x="588" y="75" width="1" height="1" fill="white" fill-opacity="0.5"/>
<rect x="929" y="289" width="1" height="1" fill="white" fill-opacity="0.4"/>
<rect x="1182" y="109" width="2" height="2" fill="white" fill-opacity="0.4"/>
<rect x="382" y="193" width="1" height="1" fill="white" fill-opacity="0.4"/>
<rect x="825" y="81" width="2" height="2" fill="white" fill-opacity="0.4"/>
<rect x="505" y="256" width="2" height="2" fill="white" fill-opacity="0.5"/>
<rect x="567" y="65" width="1" height="1" fill="white" fill-opacity="0.4"/>
<rect x="1247" y="200" width="2" height="2" fill="white" fill-opacity="0.4"/>
<rect x="623" y="199" width="2" height="2" fill="white" fill-opacity="0.5"/>
<rect x="660" y="6" width="1" height="1" fill="white" fill-opacity="0.5"/>
<rect x="1204" y="180" width="2" height="2" fill="white" fill-opacity="0.5"/>
<rect x="1222" y="5" width="1" height="1" fill="white" fill-opacity="0.6"/>
<rect x="401" y="23" width="2" height="2" fill="white" fill-opacity="0.3"/>
<rect x="214" y="250" width="1" height="1" fill="white" fill-opacity="0.4"/>
<rect x="78" y="23" width="1" height="1" fill="white" fill-opacity="0.4"/>
<rect x="1058" y="289" width="1" height="1" fill="white" fill-opacity="0.4"/>
<rect x="694" y="152" width="2" height="2" fill="white" fill-opacity="0.5"/>
<rect x="52" y="141" width="2" height="2" fill="white" fill-opacity="0.5"/>
<rect x="156" y="10" width="1" height="1" fill="white" fill-opacity="0.5"/>
<rect x="433" y="118" width="1" height="1" fill="white" fill-opacity="0.5"/>
<rect x="262" y="241" width="2" height="2" fill="white" fill-opacity="0.5"/>
<rect x="80" y="285" width="1" height="1" fill="white" fill-opacity="0.6"/>
<rect x="213" y="38" width="1" height="1" fill="white" fill-opacity="0.4"/>
<rect x="1129" y="34" width="2" height="2" fill="white" fill-opacity="0.5"/>
<rect x="484" y="111" width="1" height="1" fill="white" fill-opacity="0.4"/>
<rect x="1187" y="128" width="2" height="2" fill="white" fill-opacity="0.3"/>
<rect x="626" y="173" width="2" height="2" fill="white" fill-opacity="0.6"/>
<rect x="964" y="47" width="1" height="1" fill="white" fill-opacity="0.6"/>
<rect x="196" y="255" width="1" height="1" fill="white" fill-opacity="0.6"/>
<rect x="981" y="166" width="1" height="1" fill="white" fill-opacity="0.5"/>
<rect x="540" y="246" width="2" height="2" fill="white" fill-opacity="0.4"/>
<rect x="859" y="132" width="2" height="2" fill="white" fill-opacity="0.4"/>
<rect x="563" y="1" width="1" height="1" fill="white" fill-opacity="0.6"/>
<rect x="219" y="275" width="2" height="2" fill="white" fill-opacity="0.6"/>
<rect x="418" y="60" width="1" height="1" fill="white" fill-opacity="0.4"/>
<rect x="22" y="227" width="2" height="2" fill="white" fill-opacity="0.4"/>
<rect x="200" y="211" width="1" height="1" fill="white" fill-opacity="0.4"/>
<rect x="481" y="164" width="1" height="1" fill="white" fill-opacity="0.5"/>
<rect x="639" y="38" width="1" height="1" fill="white" fill-opacity="0.4"/>
<rect x="1037" y="192" width="2" height="2" fill="white" fill-opacity="0.6"/>
<rect x="540" y="108" width="1" height="1" fill="white" fill-opacity="0.6"/>
<rect x="458" y="291" width="1" height="1" fill="white" fill-opacity="0.4"/>
<rect x="332" y="211" width="2" height="2" fill="white" fill-opacity="0.4"/>
<rect x="73" y="235" width="1" height="1" fill="white" fill-opacity="0.5"/>
<rect x="593" y="188" width="1" height="1" fill="white" fill-opacity="0.6"/>
<rect x="113" y="209" width="2" height="2" fill="white" fill-opacity="0.5"/>
<rect x="49" y="261" width="2" height="2" fill="white" fill-opacity="0.4"/>
<rect x="482" y="91" width="2" height="2" fill="white" fill-opacity="0.5"/>
<rect x="1169" y="262" width="1" height="1" fill="white" fill-opacity="0.6"/>
<rect x="515" y="66" width="2" height="2" fill="white" fill-opacity="0.6"/>
<rect x="1130" y="182" width="2" height="2" fill="white" fill-opacity="0.3"/>
<rect x="398" y="289" width="1" height="1" fill="white" fill-opacity="0.5"/>
<rect x="688" y="142" width="1" height="1" fill="white" fill-opacity="0.4"/>
<rect x="1115" y="95" width="1" height="1" fill="white" fill-opacity="0.4"/>
<rect x="602" y="211" width="2" height="2" fill="white" fill-opacity="0.4"/>
<rect x="787" y="276" width="2" height="2" fill="white" fill-opacity="0.4"/>
<rect x="383" y="273" width="2" height="2" fill="white" fill-opacity="0.4"/>
<rect x="989" y="4" width="1" height="1" fill="white" fill-opacity="0.3"/>
<rect x="833" y="54" width="2" height="2" fill="white" fill-opacity="0.5"/>
<rect x="501" y="281" width="1" height="1" fill="white" fill-opacity="0.3"/>
<rect x="164" y="82" width="1" height="1" fill="white" fill-opacity="0.4"/>
<rect x="766" y="281" width="2" height="2" fill="white" fill-opacity="0.5"/>
<rect x="994" y="126" width="2" height="2" fill="white" fill-opacity="0.4"/>
<rect x="560" y="249" width="1" height="1" fill="white" fill-opacity="0.4"/>
<rect x="603" y="176" width="1" height="1" fill="white" fill-opacity="0.4"/>
<rect x="918" y="87" width="1" height="1" fill="white" fill-opacity="0.3"/>
<rect x="1044" y="89" width="2" height="2" fill="white" fill-opacity="0.5"/>
<rect x="253" y="59" width="1" height="1" fill="white" fill-opacity="0.4"/>
<rect x="1229" y="271" width="2" height="2" fill="white" fill-opacity="0.4"/>
<rect x="706" y="36" width="1" height="1" fill="white" fill-opacity="0.5"/>
<rect x="1200" y="190" width="2" height="2" fill="white" fill-opacity="0.4"/>
<rect x="574" y="239" width="2" height="2" fill="white" fill-opacity="0.6"/>
<rect x="686" y="288" width="1" height="1" fill="white" fill-opacity="0.5"/>
<rect x="625" y="256" width="1" height="1" fill="white" fill-opacity="0.6"/>
<rect x="987" y="162" width="2" height="2" fill="white" fill-opacity="0.5"/>
<rect x="1271" y="113" width="2" height="2" fill="white" fill-opacity="0.5"/>
<rect x="480" y="45" width="1" height="1" fill="white" fill-opacity="0.4"/>
<rect x="679" y="236" width="2" height="2" fill="white" fill-opacity="0.5"/>
<rect x="1250" y="139" width="1" height="1" fill="white" fill-opacity="0.6"/>
<rect x="1177" y="162" width="2" height="2" fill="white" fill-opacity="0.4"/>
<rect x="469" y="68" width="2" height="2" fill="white" fill-opacity="0.4"/>
<rect x="678" y="280" width="1" height="1" fill="white" fill-opacity="0.5"/>
<rect x="563" y="219" width="2" height="2" fill="white" fill-opacity="0.3"/>
<rect x="309" y="56" width="1" height="1" fill="white" fill-opacity="0.5"/>
<rect x="98" y="224" width="2" height="2" fill="white" fill-opacity="0.5"/>
<rect x="765" y="200" width="1" height="1" fill="white" fill-opacity="0.3"/>
<rect x="1022" y="112" width="2" height="2" fill="white" fill-opacity="0.6"/>
<rect x="1164" y="83" width="2" height="2" fill="white" fill-opacity="0.5"/>
<rect x="239" y="95" width="2" height="2" fill="white" fill-opacity="0.5"/>
<rect x="186" y="2" width="2" height="2" fill="white" fill-opacity="0.4"/>
<rect x="908" y="181" width="2" height="2" fill="white" fill-opacity="0.3"/>
<rect x="270" y="271" width="2" height="2" fill="white" fill-opacity="0.4"/>
<rect x="192" y="179" width="1" height="1" fill="white" fill-opacity="0.5"/>
<rect x="647" y="276" width="1" height="1" fill="white" fill-opacity="0.5"/>
<rect x="104" y="22" width="2" height="2" fill="white" fill-opacity="0.5"/>
<rect x="420" y="272" width="2" height="2" fill="white" fill-opacity="0.5"/>
<rect x="1041" y="98" width="1" height="1" fill="white" fill-opacity="0.5"/>
<rect x="246" y="224" width="2" height="2" fill="white" fill-opacity="0.3"/>
<rect x="472" y="190" width="2" height="2" fill="white" fill-opacity="0.4"/>
<rect x="145" y="73" width="1" height="1" fill="white" fill-opacity="0.3"/>
<rect x="736" y="290" width="1" height="1" fill="white" fill-opacity="0.3"/>
<rect x="910" y="134" width="2" height="2" fill="white" fill-opacity="0.3"/>
<rect x="57" y="238" width="2" height="2" fill="white" fill-opacity="0.6"/>
<rect x="945" y="162" width="2" height="2" fill="white" fill-opacity="0.4"/>
<rect x="929" y="172" width="2" height="2" fill="white" fill-opacity="0.4"/>
<rect x="704" y="205" width="1" height="1" fill="white" fill-opacity="0.4"/>
<rect x="598" y="270" width="2" height="2" fill="white" fill-opacity="0.6"/>
<rect x="449" y="35" width="1" height="1" fill="white" fill-opacity="0.5"/>
<rect x="682" y="181" width="2" height="2" fill="white" fill-opacity="0.5"/>
<rect x="951" y="187" width="1" height="1" fill="white" fill-opacity="0.5"/>
<rect x="889" y="225" width="2" height="2" fill="white" fill-opacity="0.3"/>
<rect x="388" y="291" width="1" height="1" fill="white" fill-opacity="0.5"/>
<rect x="324" y="46" width="2" height="2" fill="white" fill-opacity="0.5"/>
<rect x="800" y="100" width="2" height="2" fill="white" fill-opacity="0.5"/>
<rect x="611" y="106" width="1" height="1" fill="white" fill-opacity="0.5"/>
<rect x="247" y="229" width="2" height="2" fill="white" fill-opacity="0.5"/>
<rect x="946" y="138" width="2" height="2" fill="white" fill-opacity="0.5"/>
<rect x="461" y="195" width="1" height="1" fill="white" fill-opacity="0.5"/>
<rect x="1061" y="234" width="1" height="1" fill="white" fill-opacity="0.5"/>
<rect x="285" y="130" width="1" height="1" fill="white" fill-opacity="0.5"/>
<rect x="373" y="155" width="2" height="2" fill="white" fill-opacity="0.3"/>
<rect x="649" y="229" width="2" height="2" fill="white" fill-opacity="0.5"/>
<rect x="374" y="205" width="2" height="2" fill="white" fill-opacity="0.4"/>
<rect x="709" y="88" width="1" height="1" fill="white" fill-opacity="0.5"/>
<rect x="312" y="112" width="2" height="2" fill="white" fill-opacity="0.4"/>
<rect x="83" y="70" width="1" height="1" fill="white" fill-opacity="0.3"/>
<rect x="532" y="135" width="2" height="2" fill="white" fill-opacity="0.5"/>
<rect x="335" y="47" width="1" height="1" fill="white" fill-opacity="0.5"/>
<rect x="546" y="252" width="2" height="2" fill="white" fill-opacity="0.4"/>
<rect x="254" y="10" width="1" height="1" fill="white" fill-opacity="0.6"/>
<rect x="164" y="279" width="1" height="1" fill="white" fill-opacity="0.5"/>
<rect x="859" y="107" width="1" height="1" fill="white" fill-opacity="0.4"/>
<rect x="45" y="273" width="2" height="2" fill="white" fill-opacity="0.6"/>
<rect x="1254" width="1" height="1" fill="white" fill-opacity="0.4"/>
<rect x="188" y="137" width="2" height="2" fill="white" fill-opacity="0.5"/>
<rect x="300" y="194" width="2" height="2" fill="white" fill-opacity="0.3"/>
<rect x="513" y="256" width="1" height="1" fill="white" fill-opacity="0.6"/>
<rect x="247" y="286" width="2" height="2" fill="white" fill-opacity="0.5"/>
<rect x="1048" y="118" width="2" height="2" fill="white" fill-opacity="0.4"/>
<rect x="277" y="32" width="2" height="2" fill="white" fill-opacity="0.3"/>
<rect x="1194" y="28" width="1" height="1" fill="white" fill-opacity="0.6"/>
<rect x="1100" y="129" width="1" height="1" fill="white" fill-opacity="0.4"/>
<rect x="616" y="33" width="1" height="1" fill="white" fill-opacity="0.4"/>
<rect x="264" y="113" width="1" height="1" fill="white" fill-opacity="0.4"/>
<rect x="1245" y="224" width="2" height="2" fill="white" fill-opacity="0.3"/>
<rect x="674" y="291" width="2" height="2" fill="white" fill-opacity="0.5"/>
<rect x="347" y="75" width="2" height="2" fill="white" fill-opacity="0.3"/>
<rect x="540" y="215" width="2" height="2" fill="white" fill-opacity="0.6"/>
<rect x="539" y="36" width="1" height="1" fill="white" fill-opacity="0.5"/>
<rect x="966" y="203" width="2" height="2" fill="white" fill-opacity="0.5"/>
<rect x="402" y="84" width="2" height="2" fill="white" fill-opacity="0.5"/>
<rect x="968" y="250" width="2" height="2" fill="white" fill-opacity="0.4"/>
<rect x="90" y="10" width="1" height="1" fill="white" fill-opacity="0.3"/>
<rect x="850" y="9" width="1" height="1" fill="white" fill-opacity="0.5"/>
<rect x="740" y="137" width="1" height="1" fill="white" fill-opacity="0.5"/>
<rect x="710" y="185" width="2" height="2" fill="white" fill-opacity="0.4"/>
<rect x="974" y="288" width="1" height="1" fill="white" fill-opacity="0.3"/>
<rect x="1065" y="169" width="2" height="2" fill="white" fill-opacity="0.5"/>
<rect x="74" y="71" width="2" height="2" fill="white" fill-opacity="0.4"/>
<rect x="826" y="68" width="1" height="1" fill="white" fill-opacity="0.4"/>
<rect x="26" y="29" width="1" height="1" fill="white" fill-opacity="0.4"/>
<rect x="300" y="89" width="1" height="1" fill="white" fill-opacity="0.3"/>
<rect x="200" y="78" width="2" height="2" fill="white" fill-opacity="0.5"/>
<rect x="388" y="279" width="2" height="2" fill="white" fill-opacity="0.3"/>
<rect x="105" y="217" width="1" height="1" fill="white" fill-opacity="0.5"/>
<rect x="471" y="275" width="1" height="1" fill="white" fill-opacity="0.4"/>
<rect x="1255" y="19" width="1" height="1" fill="white" fill-opacity="0.6"/>
<rect x="554" y="179" width="1" height="1" fill="white" fill-opacity="0.3"/>
<rect x="686" y="169" width="1" height="1" fill="white" fill-opacity="0.3"/>
<rect x="1132" width="2" height="2" fill="white" fill-opacity="0.5"/>
<rect x="743" y="144" width="2" height="2" fill="white" fill-opacity="0.4"/>
<rect x="816" y="19" width="2" height="2" fill="white" fill-opacity="0.6"/>
<rect x="923" y="62" width="2" height="2" fill="white" fill-opacity="0.4"/>
<rect x="152" y="9" width="2" height="2" fill="white" fill-opacity="0.6"/>
<rect x="104" y="204" width="2" height="2" fill="white" fill-opacity="0.5"/>
<rect x="431" y="261" width="2" height="2" fill="white" fill-opacity="0.6"/>
<rect x="485" y="220" width="1" height="1" fill="white" fill-opacity="0.5"/>
<rect x="857" y="81" width="2" height="2" fill="white" fill-opacity="0.4"/>
<rect x="15" y="155" width="2" height="2" fill="white" fill-opacity="0.5"/>
<rect x="448" y="47" width="1" height="1" fill="white" fill-opacity="0.6"/>
<rect x="717" y="96" width="1" height="1" fill="white" fill-opacity="0.3"/>
<rect x="1035" y="137" width="1" height="1" fill="white" fill-opacity="0.6"/>
<rect x="646" y="244" width="1" height="1" fill="white" fill-opacity="0.5"/>
<rect x="769" y="215" width="2" height="2" fill="white" fill-opacity="0.6"/>
<rect x="1069" y="181" width="2" height="2" fill="white" fill-opacity="0.4"/>
<rect x="502" y="267" width="2" height="2" fill="white" fill-opacity="0.3"/>
<rect x="81" y="102" width="2" height="2" fill="white" fill-opacity="0.4"/>
<rect x="789" y="17" width="1" height="1" fill="white" fill-opacity="0.4"/>
<rect x="716" y="71" width="1" height="1" fill="white" fill-opacity="0.4"/>
<rect x="1074" y="204" width="1" height="1" fill="white" fill-opacity="0.4"/>
<rect x="259" y="20" width="2" height="2" fill="white" fill-opacity="0.4"/>
<rect x="806" y="218" width="1" height="1" fill="white" fill-opacity="0.5"/>
<rect x="340" y="192" width="1" height="1" fill="white" fill-opacity="0.3"/>
<rect x="492" y="289" width="2" height="2" fill="white" fill-opacity="0.5"/>
<rect x="147" y="63" width="2" height="2" fill="white" fill-opacity="0.5"/>
<rect x="1259" y="88" width="1" height="1" fill="white" fill-opacity="0.5"/>
<rect x="285" y="247" width="2" height="2" fill="white" fill-opacity="0.5"/>
<rect x="414" y="207" width="1" height="1" fill="white" fill-opacity="0.5"/>
<rect x="251" y="51" width="2" height="2" fill="white" fill-opacity="0.3"/>
<rect x="207" y="64" width="2" height="2" fill="white" fill-opacity="0.3"/>
<rect x="1223" y="13" width="2" height="2" fill="white" fill-opacity="0.5"/>
<rect x="1044" y="141" width="1" height="1" fill="white" fill-opacity="0.6"/>
<rect x="149" y="251" width="2" height="2" fill="white" fill-opacity="0.4"/>
<rect x="812" y="271" width="1" height="1" fill="white" fill-opacity="0.5"/>
<rect x="764" y="239" width="2" height="2" fill="white" fill-opacity="0.4"/>
<rect x="653" y="70" width="1" height="1" fill="white" fill-opacity="0.5"/>
<rect x="1147" y="240" width="1" height="1" fill="white" fill-opacity="0.6"/>
<rect x="79" y="95" width="2" height="2" fill="white" fill-opacity="0.4"/>
<rect x="529" y="152" width="1" height="1" fill="white" fill-opacity="0.4"/>
<rect x="981" y="91" width="1" height="1" fill="white" fill-opacity="0.4"/>
<rect x="531" y="40" width="1" height="1" fill="white" fill-opacity="0.6"/>
<rect x="144" y="36" width="1" height="1" fill="white" fill-opacity="0.6"/>
<rect x="141" y="77" width="1" height="1" fill="white" fill-opacity="0.5"/>
<rect x="666" y="187" width="1" height="1" fill="white" fill-opacity="0.6"/>
<rect x="646" y="86" width="1" height="1" fill="white" fill-opacity="0.6"/>
<rect x="1182" y="92" width="1" height="1" fill="white" fill-opacity="0.3"/>
<rect x="78" y="69" width="2" height="2" fill="white" fill-opacity="0.4"/>
<rect x="819" y="283" width="2" height="2" fill="white" fill-opacity="0.5"/>
<rect x="414" y="140" width="1" height="1" fill="white" fill-opacity="0.5"/>
<rect x="301" y="214" width="1" height="1" fill="white" fill-opacity="0.5"/>
<rect x="261" y="208" width="1" height="1" fill="white" fill-opacity="0.6"/>
<rect x="1168" y="25" width="2" height="2" fill="white" fill-opacity="0.4"/>
<rect x="1272" y="82" width="1" height="1" fill="white" fill-opacity="0.6"/>
<rect x="1059" y="95" width="1" height="1" fill="white" fill-opacity="0.6"/>
<rect x="846" y="269" width="1" height="1" fill="white" fill-opacity="0.6"/>
<rect x="548" y="63" width="2" height="2" fill="white" fill-opacity="0.6"/>
<rect x="812" y="45" width="2" height="2" fill="white" fill-opacity="0.5"/>
<rect x="714" y="99" width="2" height="2" fill="white" fill-opacity="0.4"/>
<rect x="742" y="226" width="2" height="2" fill="white" fill-opacity="0.3"/>
<rect x="905" y="28" width="1" height="1" fill="white" fill-opacity="0.5"/>
<rect x="157" y="71" width="2" height="2" fill="white" fill-opacity="0.4"/>
<rect x="276" y="102" width="2" height="2" fill="white" fill-opacity="0.3"/>
<rect x="401" y="281" width="2" height="2" fill="white" fill-opacity="0.6"/>
<rect x="15" y="65" width="2" height="2" fill="white" fill-opacity="0.5"/>
<rect x="229" y="55" width="1" height="1" fill="white" fill-opacity="0.4"/>
<rect x="425" y="104" width="2" height="2" fill="white" fill-opacity="0.3"/>
<rect x="319" y="185" width="2" height="2" fill="white" fill-opacity="0.5"/>
<rect x="819" y="28" width="1" height="1" fill="white" fill-opacity="0.3"/>
<rect x="252" y="101" width="2" height="2" fill="white" fill-opacity="0.5"/>
<rect x="408" y="90" width="1" height="1" fill="white" fill-opacity="0.6"/>
<rect x="126" y="278" width="1" height="1" fill="white" fill-opacity="0.6"/>
<rect x="57" y="153" width="1" height="1" fill="white" fill-opacity="0.5"/>
<rect x="989" y="167" width="2" height="2" fill="white" fill-opacity="0.4"/>
<rect x="562" y="102" width="1" height="1" fill="white" fill-opacity="0.5"/>
<rect x="1186" y="155" width="1" height="1" fill="white" fill-opacity="0.6"/>
<rect x="587" y="83" width="1" height="1" fill="white" fill-opacity="0.6"/>
<rect x="1109" y="38" width="1" height="1" fill="white" fill-opacity="0.5"/>
<rect x="1010" y="190" width="1" height="1" fill="white" fill-opacity="0.4"/>
<rect x="233" y="53" width="2" height="2" fill="white" fill-opacity="0.4"/>
<rect x="881" y="13" width="2" height="2" fill="white" fill-opacity="0.4"/>
<rect x="614" y="5" width="2" height="2" fill="white" fill-opacity="0.4"/>
<rect x="673" y="230" width="2" height="2" fill="white" fill-opacity="0.3"/>
<rect x="604" y="194" width="1" height="1" fill="white" fill-opacity="0.3"/>
<rect x="342" y="31" width="1" height="1" fill="white" fill-opacity="0.6"/>
<rect x="1081" y="92" width="1" height="1" fill="white" fill-opacity="0.5"/>
<rect x="414" y="171" width="2" height="2" fill="white" fill-opacity="0.5"/>
<rect x="773" y="112" width="2" height="2" fill="white" fill-opacity="0.6"/>
<rect x="961" y="123" width="2" height="2" fill="white" fill-opacity="0.6"/>
<rect x="901" y="233" width="2" height="2" fill="white" fill-opacity="0.3"/>
<rect x="804" y="53" width="2" height="2" fill="white" fill-opacity="0.3"/>
<rect x="734" y="109" width="2" height="2" fill="white" fill-opacity="0.6"/>
<rect x="369" y="204" width="2" height="2" fill="white" fill-opacity="0.5"/>
<rect x="666" y="157" width="1" height="1" fill="white" fill-opacity="0.3"/>
<rect x="298" y="34" width="1" height="1" fill="white" fill-opacity="0.3"/>
<rect x="671" y="70" width="1" height="1" fill="white" fill-opacity="0.5"/>
<rect x="1184" y="229" width="1" height="1" fill="white" fill-opacity="0.5"/>
<rect x="1193" y="142" width="2" height="2" fill="white" fill-opacity="0.4"/>
<rect x="663" y="176" width="1" height="1" fill="white" fill-opacity="0.6"/>
<rect x="831" y="139" width="1" height="1" fill="white" fill-opacity="0.5"/>
<rect x="1235" y="178" width="1" height="1" fill="white" fill-opacity="0.4"/>
<rect x="1138" y="291" width="2" height="2" fill="white" fill-opacity="0.4"/>
<rect x="720" y="88" width="2" height="2" fill="white" fill-opacity="0.4"/>
<rect x="1132" y="79" width="2" height="2" fill="white" fill-opacity="0.5"/>
<rect x="286" y="248" width="1" height="1" fill="white" fill-opacity="0.4"/>
<rect x="138" y="26" width="2" height="2" fill="white" fill-opacity="0.6"/>
<rect x="320" y="131" width="2" height="2" fill="white" fill-opacity="0.5"/>
<rect x="351" y="291" width="1" height="1" fill="white" fill-opacity="0.5"/>
<rect x="178" y="98" width="2" height="2" fill="white" fill-opacity="0.3"/>
<rect x="549" y="13" width="1" height="1" fill="white" fill-opacity="0.4"/>
<rect x="211" y="290" width="2" height="2" fill="white" fill-opacity="0.5"/>
<rect x="871" y="287" width="2" height="2" fill="white" fill-opacity="0.4"/>
<rect x="1168" y="53" width="1" height="1" fill="white" fill-opacity="0.4"/>
<rect x="375" y="267" width="1" height="1" fill="white" fill-opacity="0.5"/>
<rect x="591" y="246" width="1" height="1" fill="white" fill-opacity="0.6"/>
<rect x="55" y="245" width="2" height="2" fill="white" fill-opacity="0.5"/>
<rect x="800" y="135" width="1" height="1" fill="white" fill-opacity="0.3"/>
<rect x="1128" y="224" width="1" height="1" fill="white" fill-opacity="0.3"/>
<rect x="683" y="286" width="2" height="2" fill="white" fill-opacity="0.5"/>
<rect x="906" y="171" width="2" height="2" fill="white" fill-opacity="0.4"/>
<rect x="860" width="1" height="1" fill="white" fill-opacity="0.4"/>
<rect x="767" y="107" width="1" height="1" fill="white" fill-opacity="0.6"/>
<rect x="1063" y="39" width="1" height="1" fill="white" fill-opacity="0.4"/>
<rect x="644" y="244" width="2" height="2" fill="white" fill-opacity="0.4"/>
<rect x="509" y="264" width="1" height="1" fill="white" fill-opacity="0.5"/>
<rect x="1001" y="133" width="1" height="1" fill="white" fill-opacity="0.4"/>
<rect x="1241" y="69" width="1" height="1" fill="white" fill-opacity="0.3"/>
<rect x="63" y="219" width="2" height="2" fill="white" fill-opacity="0.3"/>
<rect x="1178" y="6" width="2" height="2" fill="white" fill-opacity="0.4"/>
<rect x="756" y="174" width="1" height="1" fill="white" fill-opacity="0.6"/>
<rect x="820" y="219" width="1" height="1" fill="white" fill-opacity="0.4"/>
<rect x="1035" y="262" width="2" height="2" fill="white" fill-opacity="0.5"/>
<rect x="671" y="206" width="2" height="2" fill="white" fill-opacity="0.5"/>
<rect x="843" y="9" width="1" height="1" fill="white" fill-opacity="0.5"/>
<rect x="337" y="253" width="1" height="1" fill="white" fill-opacity="0.5"/>
<rect x="314" y="227" width="2" height="2" fill="white" fill-opacity="0.4"/>
<rect x="815" y="25" width="2" height="2" fill="white" fill-opacity="0.4"/>
<rect x="184" y="115" width="1" height="1" fill="white" fill-opacity="0.4"/>
<rect x="1215" y="222" width="2" height="2" fill="white" fill-opacity="0.3"/>
<rect x="668" y="255" width="2" height="2" fill="white" fill-opacity="0.4"/>
<rect x="552" y="195" width="2" height="2" fill="white" fill-opacity="0.5"/>
<rect x="368" y="26" width="2" height="2" fill="white" fill-opacity="0.4"/>
<rect x="695" y="205" width="2" height="2" fill="white" fill-opacity="0.5"/>
<rect x="372" y="20" width="2" height="2" fill="white" fill-opacity="0.6"/>
<rect x="110" y="57" width="2" height="2" fill="white" fill-opacity="0.4"/>
<rect x="755" width="2" height="2" fill="white" fill-opacity="0.5"/>
<rect x="978" y="98" width="2" height="2" fill="white" fill-opacity="0.5"/>
<rect x="198" y="43" width="1" height="1" fill="white" fill-opacity="0.6"/>
<rect x="1189" y="187" width="1" height="1" fill="white" fill-opacity="0.6"/>
<rect x="927" y="105" width="2" height="2" fill="white" fill-opacity="0.4"/>
<rect x="890" y="15" width="2" height="2" fill="white" fill-opacity="0.3"/>
<rect x="768" y="50" width="2" height="2" fill="white" fill-opacity="0.5"/>
<rect x="432" y="31" width="1" height="1" fill="white" fill-opacity="0.4"/>
<rect x="853" y="204" width="2" height="2" fill="white" fill-opacity="0.5"/>
<rect x="1189" y="16" width="1" height="1" fill="white" fill-opacity="0.4"/>
<rect x="1033" y="67" width="1" height="1" fill="white" fill-opacity="0.3"/>
<rect x="1" y="115" width="2" height="2" fill="white" fill-opacity="0.4"/>
<rect x="140" y="203" width="1" height="1" fill="white" fill-opacity="0.5"/>
<rect x="281" y="59" width="2" height="2" fill="white" fill-opacity="0.3"/>
<rect x="439" y="291" width="2" height="2" fill="white" fill-opacity="0.4"/>
<rect x="179" y="62" width="1" height="1" fill="white" fill-opacity="0.4"/>
<rect x="978" y="264" width="2" height="2" fill="white" fill-opacity="0.4"/>
<rect x="6" y="217" width="2" height="2" fill="white" fill-opacity="0.6"/>
<rect x="1138" y="18" width="1" height="1" fill="white" fill-opacity="0.4"/>
</svg>
